<svg width="333" height="148" viewBox="0 0 333 148" fill="none" xmlns="http://www.w3.org/2000/svg">
<g clip-path="url(#clip0_6061_0)">
<path d="M120 116.043H81.1249H59.2433L59.4761 92.1827V59.4766L120 116.043Z" fill="#EEBC4E"/>
<path d="M106.382 27.934C106.266 12.4539 93.6952 0 78.2151 0H77.9824H59.4761H59.2433V27.7013V27.934V55.6353V56.1009H77.9824H78.2151C93.6952 56.1009 106.266 43.6469 106.498 28.1668V28.0504C106.382 28.0504 106.382 28.0504 106.382 27.934Z" fill="#EEBC4E"/>
<path d="M56.5664 0H0V56.5664H56.5664V0Z" fill="#EEBC4E"/>
<path d="M56.5664 59.4766H0V116.043H56.5664V59.4766Z" fill="#EEBC4E"/>
</g>
<path d="M162.303 50.7881C162.303 38.5954 161.903 36.5966 156.706 35.7971L152.708 35.1975C151.909 34.5978 151.909 32.599 152.908 31.9994C160.104 31.3998 168.899 31 181.291 31C189.286 31 196.682 31.5996 202.478 34.7977C208.675 37.9958 213.072 43.7923 213.072 52.587C213.072 64.7797 203.478 71.3757 197.082 73.7743C196.482 74.5738 197.082 75.7731 197.681 76.7725C207.875 93.1626 214.671 103.356 223.266 110.752C225.465 112.751 228.663 114.15 232.061 114.35C232.66 114.55 232.86 115.549 232.261 116.149C231.061 116.549 229.062 116.748 226.664 116.748C215.87 116.748 209.274 113.55 200.28 100.758C196.882 95.9609 191.685 87.1662 187.887 81.5696C185.888 78.7713 183.89 77.572 178.893 77.572C173.096 77.572 172.896 77.7719 172.896 80.3703V96.3607C172.896 109.753 173.096 111.352 180.492 112.351L183.09 112.751C183.89 113.35 183.69 115.549 182.89 115.949C177.094 115.749 172.896 115.549 167.699 115.549C162.303 115.549 157.705 115.749 151.709 115.949C150.909 115.549 150.709 113.75 151.509 112.751L154.707 112.351C162.103 111.552 162.303 109.753 162.303 96.3607V50.7881V50.7881ZM172.696 68.9772C172.696 71.1758 172.696 72.575 173.096 73.1747C173.496 73.5744 175.295 73.7743 181.891 73.7743C186.488 73.7743 191.285 73.1746 195.083 70.3763C198.481 67.7779 201.479 63.1807 201.479 54.5858C201.479 44.5918 195.283 34.9976 181.091 34.9976C173.096 34.9976 172.896 35.5972 172.896 38.9952V68.9772H172.696Z" fill="#EEBC4E"/>
<path d="M242.654 82.9694C239.256 82.9694 239.256 83.1693 239.256 86.3674C239.256 99.1597 246.852 110.153 260.444 110.153C264.641 110.153 268.239 108.954 272.236 103.957C273.436 103.557 274.435 104.357 274.435 105.556C270.238 114.151 261.043 117.349 254.447 117.349C246.252 117.349 239.656 113.751 236.058 108.954C232.26 103.957 230.661 97.9604 230.661 92.3638C230.661 76.7731 241.055 63.5811 256.246 63.5811C267.239 63.5811 274.435 71.1765 274.435 78.7719C274.435 80.5708 274.235 81.5703 273.835 82.1699C273.436 82.9694 271.637 82.9694 266.24 82.9694H242.654ZM250.45 79.1717C259.844 79.1717 262.642 78.572 263.642 77.9724C264.041 77.7725 264.441 77.1729 264.441 75.5739C264.441 71.976 262.043 67.5787 254.647 67.5787C247.052 67.5787 240.655 74.3746 240.456 78.5721C240.456 78.7719 240.455 79.1717 241.255 79.1717H250.45V79.1717Z" fill="#EEBC4E"/>
<path d="M283.63 78.972C283.63 73.975 283.63 73.3753 280.232 70.9768L279.032 70.1773C278.433 69.5776 278.433 68.1784 279.232 67.9786C282.63 66.5794 288.627 63.5812 291.825 61.1826C292.624 61.1826 293.024 61.3825 293.424 61.9821C293.224 64.1808 292.824 66.1796 292.824 67.7787C292.824 68.5782 293.024 69.3777 294.023 69.3777C295.622 68.5782 303.618 63.3813 311.813 63.3813C324.605 63.3813 333 73.7751 333 86.7673C333 104.557 320.008 117.149 301.819 117.149C299.62 117.149 296.022 116.949 294.823 116.55C293.624 116.749 293.024 117.349 293.024 120.147V133.539C293.024 142.534 293.224 143.733 297.821 144.333L302.818 144.933C303.618 145.532 303.418 147.731 302.618 148.131C296.422 147.931 292.824 147.731 288.427 147.731C283.829 147.731 280.032 147.931 276.434 148.131C275.634 147.731 275.235 145.532 276.234 144.933L278.832 144.533C283.63 143.933 283.63 142.534 283.63 133.539V78.972V78.972ZM293.024 102.758C293.024 106.755 294.223 108.354 296.822 110.353C299.42 112.352 303.418 113.152 306.016 113.152C316.41 113.152 322.606 103.557 322.606 90.1653C322.606 79.9714 316.81 69.5776 305.417 69.5776C300.02 69.5776 296.022 71.5764 294.623 73.1755C293.424 74.5746 293.024 76.5734 293.024 80.7709V102.758Z" fill="#EEBC4E"/>
<defs>
<clipPath id="clip0_6061_0">
<rect width="120" height="198.797" fill="white"/>
</clipPath>
</defs>
</svg>
